<?xml version="1.0" standalone="no"?>
<!DOCTYPE svg PUBLIC "-//W3C//DTD SVG 20010904//EN"
 "http://www.w3.org/TR/2001/REC-SVG-20010904/DTD/svg10.dtd">
<svg version="1.0" xmlns="http://www.w3.org/2000/svg"
 width="75px" height="75px" viewBox="0 0 433.000000 433.000000"
 preserveAspectRatio="xMidYMid meet">
<g transform="translate(0.000000,433.000000) scale(0.100000,-0.100000)"
fill="#ffffff" stroke="none">
<path d="M3135 3776 c-130 -34 -267 -106 -340 -180 -43 -44 -137 -185 -184
-278 -34 -66 -72 -90 -261 -161 -568 -216 -820 -359 -1200 -681 -156 -133
-180 -168 -184 -267 l-3 -59 -144 -98 c-587 -399 -753 -522 -792 -589 -14 -23
3 -52 36 -62 32 -9 199 -7 267 4 29 4 21 -2 -38 -32 -79 -39 -172 -118 -172
-146 0 -25 43 -38 146 -44 84 -5 97 -3 185 27 52 18 125 46 162 61 38 15 67
26 64 23 -2 -2 -44 -32 -94 -67 -140 -97 -247 -188 -393 -336 -116 -117 -157
-166 -178 -209 l-17 -34 37 -33 c24 -22 61 -42 109 -56 123 -37 305 -16 469
57 182 80 199 92 409 301 95 95 177 171 181 168 4 -2 18 -45 30 -95 23 -89 38
-107 66 -81 5 5 59 30 119 56 61 25 119 50 130 55 34 16 127 48 185 64 88 25
191 36 379 41 l176 4 -80 -24 c-118 -35 -241 -90 -237 -106 4 -14 73 -181 78
-188 2 -2 21 6 42 17 92 48 326 104 612 148 25 4 179 6 342 6 349 -1 322 -13
322 133 1 112 -9 180 -29 211 -20 31 -83 56 -215 88 -8 2 -44 12 -80 21 -105
27 -128 30 -387 39 -61 3 -121 9 -132 15 -28 16 -68 74 -53 79 34 11 198 96
268 137 463 279 714 517 863 820 33 66 63 140 66 163 7 45 13 188 14 320 1 71
2 74 42 117 79 85 273 160 429 164 l35 1 -25 20 c-30 23 -98 48 -158 56 -24 3
-51 7 -60 9 -9 2 -37 4 -62 5 l-45 2 60 28 c59 27 151 53 230 65 22 3 54 8 70
10 17 3 52 7 79 10 27 2 51 6 53 9 9 9 -32 58 -72 86 -61 42 -188 82 -260 83
-78 1 -238 -12 -341 -28 -12 -2 -47 12 -79 31 -161 97 -316 132 -440 100z
m203 -325 c48 -25 66 -92 42 -150 -31 -75 -136 -88 -193 -24 -45 51 -25 147
36 177 33 16 82 14 115 -3z m-1060 -1860 c10 -1 13 -23 11 -90 -2 -106 -7
-119 -43 -103 -40 18 -58 55 -58 121 0 33 2 63 5 68 5 7 40 9 85 4z m-262
-168 c-2 -2 -19 -7 -38 -9 -35 -5 -148 -26 -203 -39 -11 -2 -30 -6 -43 -9 -52
-11 -176 -47 -210 -61 l-37 -15 32 28 c91 79 304 179 438 207 l60 12 3 -55 c2
-30 1 -56 -2 -59z"/>
</g>
</svg>
